#Comment line ignore any data following # character 
#Hierarchical Translation and Rotation (.htr) file 
[Header]	
#Header keywords are followed by a single value 
FileType HTR		#Single word string
DataType HTRS		#Translation followed by rotation and scale data
FileVersion 1		#integer
NumSegments 84		#integer
NumFrames 2		#integer
DataFrameRate 30		#integer, data frame rate in this file
EulerRotationOrder ZYX
CalibrationUnits mm
RotationUnits Degrees
GlobalAxisofGravity Y
BoneLengthAxis Y
ScaleFactor 1.00
[SegmentNames&Hierarchy]
#CHILD	PARENT
MASTER GLOBAL
root MASTER
chest root
L_mid_tent01 root
R_mid_tent01 root
spine01 root
Bip01_Neck chest
L_humerus chest
R_humerus chest
weapon_bone chest
Bip01_Head Bip01_Neck
eye_left_bone Bip01_Head
eye_right_bone Bip01_Head
L_forearm L_humerus
L_front_hand L_forearm
L_weapon_bone L_forearm
L_front_hand01_01 L_front_hand
L_front_hand02_01 L_front_hand
L_front_hand03_01 L_front_hand
L_front_hand01_02 L_front_hand01_01
L_front_hand02_02 L_front_hand02_01
L_front_hand03_02 L_front_hand03_01
R_forearm R_humerus
R_front_hand R_forearm
R_weapon_bone R_forearm
R_front_hand01_01 R_front_hand
R_front_hand02_01 R_front_hand
R_front_hand03_01 R_front_hand
R_front_hand01_02 R_front_hand01_01
R_front_hand02_02 R_front_hand02_01
R_front_hand03_02 R_front_hand03_01
null_rope01_connect L_mid_tent01
Rope1_Seg01 null_rope01_connect
Rope1_Seg02 Rope1_Seg01
Rope1_Seg03 Rope1_Seg02
Rope1_Seg04 Rope1_Seg03
Rope1_Seg05 Rope1_Seg04
Rope1_Seg06 Rope1_Seg05
Rope1_Seg07 Rope1_Seg06
Rope1_Seg09 Rope1_Seg07
L_mid_hand01 Rope1_Seg09
L_mid_hand02 Rope1_Seg09
L_mid_hand03 Rope1_Seg09
null_rope02_connect R_mid_tent01
Rope2_Seg01 null_rope02_connect
Rope2_Seg02 Rope2_Seg01
Rope2_Seg03 Rope2_Seg02
Rope2_Seg04 Rope2_Seg03
Rope2_Seg05 Rope2_Seg04
Rope2_Seg06 Rope2_Seg05
Rope2_Seg07 Rope2_Seg06
Rope2_Seg09 Rope2_Seg07
R_mid_hand01 Rope2_Seg09
R_mid_hand02 Rope2_Seg09
R_mid_hand03 Rope2_Seg09
spine02 spine01
spine03 spine02
pelvis spine03
null_rope03_connect pelvis
null_rope04_connect pelvis
Rope3_Seg01 null_rope03_connect
Rope3_Seg02 Rope3_Seg01
Rope3_Seg03 Rope3_Seg02
Rope3_Seg04 Rope3_Seg03
Rope3_Seg05 Rope3_Seg04
Rope3_Seg06 Rope3_Seg05
Rope3_Seg07 Rope3_Seg06
Rope3_Seg08 Rope3_Seg07
Rope3_Seg09 Rope3_Seg08
R_rear_hand01 Rope3_Seg09
R_rear_hand02 Rope3_Seg09
R_rear_hand03 Rope3_Seg09
Rope4_Seg01 null_rope04_connect
Rope4_Seg02 Rope4_Seg01
Rope4_Seg03 Rope4_Seg02
Rope4_Seg04 Rope4_Seg03
Rope4_Seg05 Rope4_Seg04
Rope4_Seg06 Rope4_Seg05
Rope4_Seg07 Rope4_Seg06
Rope4_Seg08 Rope4_Seg07
Rope4_Seg09 Rope4_Seg08
L_rear_hand01 Rope4_Seg09
L_rear_hand02 Rope4_Seg09
L_rear_hand03 Rope4_Seg09
[BasePosition]
#SegmentName Tx, Ty, Tz, Rx, Ry, Rz, BoneLength
MASTER 0.000000 0.000000 0.000000 -90.000000 0.000000 0.000000 10.000000 
root 0.000000 0.000000 0.000000 0.000000 0.000000 0.000000 10.000000 
chest 0.000000 0.000000 0.000000 0.000000 0.000000 0.000000 10.000000 
L_mid_tent01 0.000000 0.000000 0.000000 0.000000 0.000000 0.000000 10.000000 
R_mid_tent01 0.000000 0.000000 0.000000 0.000000 0.000000 0.000000 10.000000 
spine01 0.000000 0.000000 0.000000 0.000000 0.000000 0.000000 10.000000 
Bip01_Neck 0.000000 0.000000 0.000000 0.000000 0.000000 0.000000 10.000000 
L_humerus 0.000000 0.000000 0.000000 0.000000 0.000000 0.000000 10.000000 
R_humerus 0.000000 0.000000 0.000000 0.000000 0.000000 0.000000 10.000000 
weapon_bone 0.000000 0.000000 0.000000 0.000000 0.000000 0.000000 10.000000 
Bip01_Head 0.000000 0.000000 0.000000 0.000000 0.000000 0.000000 10.000000 
eye_left_bone 0.000000 0.000000 0.000000 0.000000 0.000000 0.000000 10.000000 
eye_right_bone 0.000000 0.000000 0.000000 0.000000 0.000000 0.000000 10.000000 
L_forearm 0.000000 0.000000 0.000000 0.000000 0.000000 0.000000 10.000000 
L_front_hand 0.000000 0.000000 0.000000 0.000000 0.000000 0.000000 10.000000 
L_weapon_bone 0.000000 0.000000 0.000000 0.000000 0.000000 0.000000 10.000000 
L_front_hand01_01 0.000000 0.000000 0.000000 0.000000 0.000000 0.000000 10.000000 
L_front_hand02_01 0.000000 0.000000 0.000000 0.000000 0.000000 0.000000 10.000000 
L_front_hand03_01 0.000000 0.000000 0.000000 0.000000 0.000000 0.000000 10.000000 
L_front_hand01_02 0.000000 0.000000 0.000000 0.000000 0.000000 0.000000 10.000000 
L_front_hand02_02 0.000000 0.000000 0.000000 0.000000 0.000000 0.000000 10.000000 
L_front_hand03_02 0.000000 0.000000 0.000000 0.000000 0.000000 0.000000 10.000000 
R_forearm 0.000000 0.000000 0.000000 0.000000 0.000000 0.000000 10.000000 
R_front_hand 0.000000 0.000000 0.000000 0.000000 0.000000 0.000000 10.000000 
R_weapon_bone 0.000000 0.000000 0.000000 0.000000 0.000000 0.000000 10.000000 
R_front_hand01_01 0.000000 0.000000 0.000000 0.000000 0.000000 0.000000 10.000000 
R_front_hand02_01 0.000000 0.000000 0.000000 0.000000 0.000000 0.000000 10.000000 
R_front_hand03_01 0.000000 0.000000 0.000000 0.000000 0.000000 0.000000 10.000000 
R_front_hand01_02 0.000000 0.000000 0.000000 0.000000 0.000000 0.000000 10.000000 
R_front_hand02_02 0.000000 0.000000 0.000000 0.000000 0.000000 0.000000 10.000000 
R_front_hand03_02 0.000000 0.000000 0.000000 0.000000 0.000000 0.000000 10.000000 
null_rope01_connect 0.000000 0.000000 0.000000 0.000000 0.000000 0.000000 10.000000 
Rope1_Seg01 0.000000 0.000000 0.000000 0.000000 0.000000 0.000000 10.000000 
Rope1_Seg02 0.000000 0.000000 0.000000 0.000000 0.000000 0.000000 10.000000 
Rope1_Seg03 0.000000 0.000000 0.000000 0.000000 0.000000 0.000000 10.000000 
Rope1_Seg04 0.000000 0.000000 0.000000 0.000000 0.000000 0.000000 10.000000 
Rope1_Seg05 0.000000 0.000000 0.000000 0.000000 0.000000 0.000000 10.000000 
Rope1_Seg06 0.000000 0.000000 0.000000 0.000000 0.000000 0.000000 10.000000 
Rope1_Seg07 0.000000 0.000000 0.000000 0.000000 0.000000 0.000000 10.000000 
Rope1_Seg09 0.000000 0.000000 0.000000 0.000000 0.000000 0.000000 10.000000 
L_mid_hand01 0.000000 0.000000 0.000000 0.000000 0.000000 0.000000 10.000000 
L_mid_hand02 0.000000 0.000000 0.000000 0.000000 0.000000 0.000000 10.000000 
L_mid_hand03 0.000000 0.000000 0.000000 0.000000 0.000000 0.000000 10.000000 
null_rope02_connect 0.000000 0.000000 0.000000 0.000000 0.000000 0.000000 10.000000 
Rope2_Seg01 0.000000 0.000000 0.000000 0.000000 0.000000 0.000000 10.000000 
Rope2_Seg02 0.000000 0.000000 0.000000 0.000000 0.000000 0.000000 10.000000 
Rope2_Seg03 0.000000 0.000000 0.000000 0.000000 0.000000 0.000000 10.000000 
Rope2_Seg04 0.000000 0.000000 0.000000 0.000000 0.000000 0.000000 10.000000 
Rope2_Seg05 0.000000 0.000000 0.000000 0.000000 0.000000 0.000000 10.000000 
Rope2_Seg06 0.000000 0.000000 0.000000 0.000000 0.000000 0.000000 10.000000 
Rope2_Seg07 0.000000 0.000000 0.000000 0.000000 0.000000 0.000000 10.000000 
Rope2_Seg09 0.000000 0.000000 0.000000 0.000000 0.000000 0.000000 10.000000 
R_mid_hand01 0.000000 0.000000 0.000000 0.000000 0.000000 0.000000 10.000000 
R_mid_hand02 0.000000 0.000000 0.000000 0.000000 0.000000 0.000000 10.000000 
R_mid_hand03 0.000000 0.000000 0.000000 0.000000 0.000000 0.000000 10.000000 
spine02 0.000000 0.000000 0.000000 0.000000 0.000000 0.000000 10.000000 
spine03 0.000000 0.000000 0.000000 0.000000 0.000000 0.000000 10.000000 
pelvis 0.000000 0.000000 0.000000 0.000000 0.000000 0.000000 10.000000 
null_rope03_connect 0.000000 0.000000 0.000000 0.000000 0.000000 0.000000 10.000000 
null_rope04_connect 0.000000 0.000000 0.000000 0.000000 0.000000 0.000000 10.000000 
Rope3_Seg01 0.000000 0.000000 0.000000 0.000000 0.000000 0.000000 10.000000 
Rope3_Seg02 0.000000 0.000000 0.000000 0.000000 0.000000 0.000000 10.000000 
Rope3_Seg03 0.000000 0.000000 0.000000 0.000000 0.000000 0.000000 10.000000 
Rope3_Seg04 0.000000 0.000000 0.000000 0.000000 0.000000 0.000000 10.000000 
Rope3_Seg05 0.000000 0.000000 0.000000 0.000000 0.000000 0.000000 10.000000 
Rope3_Seg06 0.000000 0.000000 0.000000 0.000000 0.000000 0.000000 10.000000 
Rope3_Seg07 0.000000 0.000000 0.000000 0.000000 0.000000 0.000000 10.000000 
Rope3_Seg08 0.000000 0.000000 0.000000 0.000000 0.000000 0.000000 10.000000 
Rope3_Seg09 0.000000 0.000000 0.000000 0.000000 0.000000 0.000000 10.000000 
R_rear_hand01 0.000000 0.000000 0.000000 0.000000 0.000000 0.000000 10.000000 
R_rear_hand02 0.000000 0.000000 0.000000 0.000000 0.000000 0.000000 10.000000 
R_rear_hand03 0.000000 0.000000 0.000000 0.000000 0.000000 0.000000 10.000000 
Rope4_Seg01 0.000000 0.000000 0.000000 0.000000 0.000000 0.000000 10.000000 
Rope4_Seg02 0.000000 0.000000 0.000000 0.000000 0.000000 0.000000 10.000000 
Rope4_Seg03 0.000000 0.000000 0.000000 0.000000 0.000000 0.000000 10.000000 
Rope4_Seg04 0.000000 0.000000 0.000000 0.000000 0.000000 0.000000 10.000000 
Rope4_Seg05 0.000000 0.000000 0.000000 0.000000 0.000000 0.000000 10.000000 
Rope4_Seg06 0.000000 0.000000 0.000000 0.000000 0.000000 0.000000 10.000000 
Rope4_Seg07 0.000000 0.000000 0.000000 0.000000 0.000000 0.000000 10.000000 
Rope4_Seg08 0.000000 0.000000 0.000000 0.000000 0.000000 0.000000 10.000000 
Rope4_Seg09 0.000000 0.000000 0.000000 0.000000 0.000000 0.000000 10.000000 
L_rear_hand01 0.000000 0.000000 0.000000 0.000000 0.000000 0.000000 10.000000 
L_rear_hand02 0.000000 0.000000 0.000000 0.000000 0.000000 0.000000 10.000000 
L_rear_hand03 0.000000 0.000000 0.000000 0.000000 0.000000 0.000000 10.000000 
#Beginning of Data. Separated by tabs
#Fr	Tx	Ty	Tz	Rx	Ry	Rz	SF
[MASTER]
11 0.000000 0.000000 0.000000 0.001660 0.001660 0.001660 0.000000
12 0.000000 0.000000 0.000000 0.001660 0.001660 0.001660 0.000000
[root]
11 -16.502298 -37.343258 1481.759033 -79.354576 -16.522274 -92.044746 1482.321411
12 -16.502298 -33.194569 1478.788818 -76.468681 -16.318094 -91.984352 1479.253418
[chest]
11 -84.512650 -34.090519 0.000000 3.368645 0.198913 148.470947 91.129311
12 -84.512650 -34.090519 0.000000 5.892924 0.462241 146.943970 91.129311
[L_mid_tent01]
11 27.299208 22.178513 -249.918488 -0.518906 34.080391 67.967178 252.381424
12 27.299204 22.178551 -249.918503 -0.173841 36.621185 68.161697 252.381439
[R_mid_tent01]
11 23.228794 24.509907 226.238495 166.117523 -28.887978 74.030205 228.744751
12 23.228794 24.509907 226.238495 168.724487 -29.765848 68.672508 228.744751
[spine01]
11 -0.361383 -0.195265 0.000000 0.001910 0.001365 18.902426 0.410763
12 -0.361383 -0.195265 0.000000 0.001913 0.001362 19.112415 0.410763
[Bip01_Neck]
11 165.484543 71.581718 0.000119 176.643677 -1.657967 43.431911 180.302734
12 165.484543 71.581718 0.000119 176.643677 -1.657967 43.431911 180.302734
[L_humerus]
11 -13.983130 -135.272980 -120.471481 171.349457 25.309828 -93.301849 181.680161
12 -13.983130 -135.272980 -120.471481 170.542404 31.801651 -95.002930 181.680161
[R_humerus]
11 -13.983309 -135.273102 125.287651 -171.897461 -5.991458 -91.451157 184.909012
12 -13.983309 -135.273102 125.287651 -171.544800 -13.324177 -92.439667 184.909012
[weapon_bone]
11 235.964890 -300.705902 0.000000 0.000000 -89.951546 -128.212341 382.234833
12 235.964890 -300.705902 0.000000 0.000000 -89.951546 -128.212341 382.234833
[Bip01_Head]
11 213.444244 185.715561 11.776932 4.962490 2.797846 -43.898750 283.173798
12 213.444229 185.715561 11.776933 4.962490 2.797846 -43.898743 283.173798
[eye_left_bone]
11 -24.626970 125.451866 -64.772606 0.000000 -90.000000 -99.840431 143.318359
12 -24.626970 125.451866 -64.772606 0.000000 -90.000000 -99.840431 143.318359
[eye_right_bone]
11 -24.626970 125.451866 64.327362 0.000000 -89.965736 80.156380 143.117676
12 -24.626970 125.451866 64.327362 0.000000 -89.965736 80.156380 143.117676
[L_forearm]
11 322.776093 0.000000 -0.000119 0.000414 -0.002310 -110.308235 322.776093
12 322.776093 0.000000 -0.000119 0.000383 -0.002316 -108.782509 322.776093
[L_front_hand]
11 241.149185 -0.042021 -3.300071 173.072342 -1.848829 -27.690475 241.171753
12 241.149185 -0.042021 -3.300071 -178.667953 -1.835447 -27.422350 241.171753
[L_weapon_bone]
11 156.183838 0.000000 0.000000 0.000014 0.000007 0.000001 156.183838
12 156.183838 0.000000 0.000000 0.000014 0.000007 0.000001 156.183838
[L_front_hand01_01]
11 86.095154 20.947098 -0.655860 -0.366594 -0.477154 75.385574 88.609184
12 86.095154 20.947098 -0.655860 -0.366594 -0.477154 75.385574 88.609184
[L_front_hand02_01]
11 86.935165 -11.437475 24.513514 154.399811 -59.883835 -61.369606 91.046425
12 86.935165 -11.437475 24.513514 154.399796 -59.883835 -61.369587 91.046425
[L_front_hand03_01]
11 86.637497 -14.123976 -20.424902 -153.913849 58.118122 -62.702866 90.126129
12 86.637497 -14.123976 -20.424902 -153.913849 58.118122 -62.702866 90.126129
[L_front_hand01_02]
11 71.020905 -0.000179 0.000030 0.000334 -0.002323 -106.379684 71.020905
12 71.020905 -0.000179 0.000030 0.000334 -0.002323 -106.379684 71.020905
[L_front_hand02_02]
11 71.020927 -0.000119 0.000060 0.000334 -0.002323 -106.379684 71.020927
12 71.020927 -0.000119 0.000060 0.000334 -0.002323 -106.379684 71.020927
[L_front_hand03_02]
11 71.020905 -0.000060 0.000060 0.000334 -0.002323 -106.379684 71.020905
12 71.020905 -0.000060 0.000060 0.000334 -0.002323 -106.379684 71.020905
[R_forearm]
11 322.776428 -0.000060 0.000030 0.206556 0.041335 -102.480637 322.776428
12 322.776428 -0.000060 0.000030 0.212436 0.021105 -96.974968 322.776428
[R_front_hand]
11 238.847015 -0.006795 2.210259 5.695721 -10.638659 -26.629507 238.857239
12 238.847015 -0.006795 2.210259 -2.635298 -10.645461 -26.312506 238.857239
[R_weapon_bone]
11 155.664093 0.002503 -0.000030 0.003487 0.001180 -90.988930 155.664078
12 155.664093 0.002503 -0.000030 0.003487 0.001180 -90.988930 155.664078
[R_front_hand01_01]
11 87.624611 14.231146 22.918642 -154.633484 -59.950607 61.746033 91.683487
12 87.624611 14.231146 22.918642 -154.633499 -59.950619 61.746044 91.683487
[R_front_hand02_01]
11 89.356956 14.367283 -19.491137 154.602661 58.302856 63.744389 92.579636
12 89.356956 14.367283 -19.491137 154.602661 58.302849 63.744389 92.579636
[R_front_hand03_01]
11 87.286232 -22.307278 -0.143439 0.162155 -0.423168 -75.767921 90.091743
12 87.286232 -22.307278 -0.143439 0.162155 -0.423168 -75.767921 90.091743
[R_front_hand01_02]
11 71.020905 0.000060 0.000119 0.002323 -0.000334 106.381706 71.020905
12 71.020905 0.000060 0.000119 0.002323 -0.000334 106.381714 71.020905
[R_front_hand02_02]
11 71.020844 -0.000030 -0.000119 0.002323 -0.000334 106.381706 71.020836
12 71.020844 -0.000030 -0.000119 0.002323 -0.000334 106.381714 71.020836
[R_front_hand03_02]
11 71.020905 0.000000 0.000030 0.002323 -0.000334 106.381706 71.020905
12 71.020905 0.000000 0.000030 0.002323 -0.000334 106.381714 71.020905
[null_rope01_connect]
11 328.732483 0.000000 -0.000238 -131.314117 -64.084236 168.249313 328.732483
12 328.732483 0.000000 -0.000238 -129.046844 -64.012489 165.261810 328.732483
[Rope1_Seg01]
11 -0.000023 -0.000046 0.000092 130.539444 23.600533 -148.196289 0.000105
12 -0.000021 -0.000043 0.000085 124.782478 22.281393 -132.217316 0.000098
[Rope1_Seg02]
11 139.999863 -0.000179 0.000000 -2.203783 -5.669550 8.230052 139.999863
12 139.999863 -0.000179 0.000000 1.199040 -8.809577 8.787752 139.999863
[Rope1_Seg03]
11 139.999924 0.000060 -0.000060 -1.253138 -5.741243 7.691564 139.999924
12 139.999924 0.000060 -0.000060 1.531332 -10.093925 8.997476 139.999924
[Rope1_Seg04]
11 139.999924 -0.000060 -0.000119 -0.636250 -5.205085 6.499852 139.999924
12 139.999924 -0.000060 -0.000119 -1.923506 -6.798134 9.784883 139.999924
[Rope1_Seg05]
11 139.999832 0.000119 -0.000060 -0.815475 -4.486275 6.426861 139.999832
12 139.999832 0.000119 -0.000060 -2.875252 -0.094773 5.626369 139.999832
[Rope1_Seg06]
11 139.999954 0.000119 -0.000060 -0.758869 -3.954999 6.231664 139.999954
12 139.999954 0.000119 -0.000060 -0.952758 -0.770955 2.877029 139.999954
[Rope1_Seg07]
11 139.999985 0.000060 0.000000 -0.362155 -3.137142 4.604151 139.999985
12 139.999985 0.000060 0.000000 -0.473287 -0.633914 1.804628 139.999985
[Rope1_Seg09]
11 121.602913 0.000119 -0.000089 -89.793175 -1.359789 0.847147 121.602913
12 121.602913 0.000119 -0.000089 -89.793175 -1.359789 0.847147 121.602913
[L_mid_hand01]
11 103.859421 1.038730 8.195221 115.405022 -54.702587 -21.718943 104.187431
12 103.859421 1.038730 8.195221 112.987701 -50.601227 -18.681456 104.187431
[L_mid_hand02]
11 105.572853 -4.139662 -10.864139 -156.173538 38.796780 -54.226360 106.211075
12 105.572853 -4.139662 -10.864139 -153.018723 36.866009 -49.082401 106.211075
[L_mid_hand03]
11 104.641464 17.579376 -3.913581 -10.557026 15.605444 59.191402 106.179977
12 104.641464 17.579376 -3.913581 -11.755013 14.733717 54.618225 106.179977
[null_rope02_connect]
11 328.732849 0.000179 -0.000119 -131.190033 51.396061 10.135284 328.732849
12 328.732849 0.000179 -0.000119 -133.002853 49.043072 3.137229 328.732849
[Rope2_Seg01]
11 0.000095 0.000153 0.000031 85.571945 6.203463 -68.877647 0.000183
12 0.000095 0.000153 0.000034 74.715355 -2.688652 -70.181824 0.000183
[Rope2_Seg02]
11 139.999741 -0.000060 -0.000119 -8.606325 7.132170 0.840825 139.999756
12 139.999741 -0.000060 -0.000119 -2.206500 5.218398 -0.975366 139.999756
[Rope2_Seg03]
11 140.000107 0.000030 0.000000 -8.506933 3.160360 2.182853 140.000107
12 140.000107 0.000030 0.000000 -1.674432 3.833402 -0.841275 140.000107
[Rope2_Seg04]
11 139.999802 0.000000 -0.000060 -11.125677 4.017055 2.335243 139.999802
12 139.999802 0.000000 -0.000060 0.359632 1.631769 -0.913223 139.999802
[Rope2_Seg05]
11 139.999985 -0.000060 0.000119 -59.846378 16.018940 4.710683 139.999985
12 139.999985 -0.000060 0.000119 -31.319147 15.239399 0.109150 139.999985
[Rope2_Seg06]
11 139.999893 -0.000030 -0.000119 -38.645348 2.973113 11.323789 139.999893
12 139.999893 -0.000030 -0.000119 -70.708786 12.048919 7.992296 139.999893
[Rope2_Seg07]
11 139.999893 0.000060 -0.000060 -8.742640 -2.364511 4.896880 139.999893
12 139.999893 0.000060 -0.000060 -16.708385 -1.523265 6.212101 139.999893
[Rope2_Seg09]
11 121.338966 0.000089 -0.000060 33.793236 -1.359788 -0.847141 121.338966
12 121.338966 0.000089 -0.000060 33.793236 -1.359788 -0.847141 121.338966
[R_mid_hand01]
11 104.680779 11.144459 -10.335981 -22.984858 42.734222 60.718655 105.778534
12 104.680779 11.144459 -10.335981 -25.192726 41.648338 57.439434 105.778534
[R_mid_hand02]
11 104.070427 2.443552 8.231699 58.419544 -61.729733 28.969135 104.424065
12 104.070427 2.443552 8.231699 60.800945 -59.436069 26.232430 104.424065
[R_mid_hand03]
11 106.028137 -11.221827 -5.996406 -175.069138 15.041782 -68.893341 106.788818
12 106.028137 -11.221827 -5.996406 -174.361145 14.799507 -66.152634 106.788818
[spine02]
11 129.756927 0.001550 0.000119 -0.531436 -4.391406 -0.037355 129.756927
12 129.756927 0.001550 0.000119 -0.469687 -4.380208 -0.876239 129.756927
[spine03]
11 78.613960 0.083832 -4.898957 1.370477 4.734667 8.481440 78.766495
12 78.613968 0.083685 -4.898961 1.409216 4.699769 8.993797 78.766502
[pelvis]
11 169.435242 0.051022 0.000000 0.014987 0.081081 -2.134991 169.435257
12 169.435242 0.051022 0.000000 0.010907 0.068533 -1.076555 169.435257
[null_rope03_connect]
11 -1.257226 -2.466202 137.391083 2.285445 -79.677223 79.234009 137.418976
12 -1.257226 -2.466202 137.391083 5.604208 -76.789185 74.791740 137.418976
[null_rope04_connect]
11 -1.259640 -2.480268 -137.844437 2.285445 -79.677223 79.234009 137.872513
12 -1.259640 -2.480268 -137.844437 5.604208 -76.789185 74.791740 137.872513
[Rope3_Seg01]
11 -0.000034 0.000000 -0.000061 -130.793365 2.680264 -82.169991 0.000070
12 -0.000034 0.000000 -0.000067 -130.487823 0.744744 -72.145317 0.000075
[Rope3_Seg02]
11 139.999924 -0.000119 0.000060 3.946582 -16.081844 -29.153908 139.999924
12 139.999924 -0.000119 0.000060 1.737089 -11.094737 -18.080496 139.999924
[Rope3_Seg03]
11 139.999924 -0.000119 0.000119 0.006363 -9.063923 -17.083920 139.999924
12 139.999924 -0.000119 0.000119 -0.005308 -7.605442 -14.250211 139.999924
[Rope3_Seg04]
11 139.999924 0.000119 0.000000 -2.063398 -3.379647 -8.179091 139.999924
12 139.999924 0.000119 0.000000 -2.313154 -3.780681 -9.748651 139.999924
[Rope3_Seg05]
11 139.999924 -0.000238 0.000060 0.322732 -2.610364 -3.879921 139.999924
12 139.999924 -0.000238 0.000060 2.957514 -4.023899 -2.825227 139.999924
[Rope3_Seg06]
11 139.999893 -0.000119 -0.000060 3.347363 -3.759060 -3.281864 139.999893
12 139.999893 -0.000119 -0.000060 11.256083 -6.925705 1.514072 139.999893
[Rope3_Seg07]
11 139.999771 0.000060 -0.000119 12.932644 -7.508899 -4.232887 139.999771
12 139.999771 0.000060 -0.000119 15.383839 -8.286100 3.500040 139.999771
[Rope3_Seg08]
11 139.999985 -0.000060 0.000000 24.909624 -7.959201 -3.058539 139.999985
12 139.999985 -0.000060 0.000000 12.010193 -6.003851 3.294328 139.999985
[Rope3_Seg09]
11 90.185997 -0.000179 -0.000060 89.793228 -1.359877 -0.847183 90.185997
12 90.185997 -0.000179 -0.000060 89.793228 -1.359877 -0.847183 90.185997
[R_rear_hand01]
11 103.366196 -6.073594 -10.757982 -173.599045 23.870522 -63.902184 104.101845
12 103.366196 -6.073594 -10.757982 -172.199188 23.472191 -60.427750 104.101845
[R_rear_hand02]
11 100.509819 12.039542 -7.992327 -19.192883 34.332623 61.336506 101.543350
12 100.509819 12.039542 -7.992327 -21.205954 33.223911 57.720810 101.543350
[R_rear_hand03]
11 101.539970 5.215704 5.435467 77.403587 -62.983593 15.125130 101.819031
12 101.539970 5.215704 5.435467 78.624985 -59.850563 13.735100 101.819031
[Rope4_Seg01]
11 -0.000034 0.000000 -0.000061 54.941143 -25.769987 -113.472389 0.000070
12 -0.000034 0.000000 -0.000067 52.089592 -16.153513 -112.699303 0.000075
[Rope4_Seg02]
11 139.999985 0.000060 0.000119 -3.646835 -17.922562 -21.209116 139.999985
12 139.999985 0.000060 0.000119 -2.360845 -14.170342 -17.285259 139.999985
[Rope4_Seg03]
11 139.999924 0.000000 -0.000238 -15.770251 -14.275769 -19.463097 139.999924
12 139.999924 0.000000 -0.000238 -8.006675 -13.605594 -16.463507 139.999924
[Rope4_Seg04]
11 139.999985 0.000000 0.000119 -18.072836 -4.966997 -10.408454 139.999985
12 139.999985 0.000000 0.000119 -10.440430 -7.634362 -10.116453 139.999985
[Rope4_Seg05]
11 139.999802 -0.000060 -0.000119 -25.936325 2.198431 -9.793728 139.999802
12 139.999802 -0.000060 -0.000119 -28.727516 1.297409 -13.891953 139.999802
[Rope4_Seg06]
11 139.999924 0.000000 0.000060 -28.448492 12.599446 -11.570178 139.999924
12 139.999924 0.000000 0.000060 -31.769129 15.600718 -16.271994 139.999924
[Rope4_Seg07]
11 139.999802 0.000000 0.000000 -13.449170 19.656992 -5.163656 139.999802
12 139.999802 0.000000 0.000000 -10.193711 14.851207 -5.091250 139.999802
[Rope4_Seg08]
11 139.999924 0.000000 0.000119 -5.033267 10.804718 -0.797841 139.999924
12 139.999924 0.000000 0.000119 -4.754811 8.097879 -1.540958 139.999924
[Rope4_Seg09]
11 90.185791 0.000060 0.000060 -135.617828 2.228885 0.850567 90.185791
12 90.185791 0.000060 0.000060 -135.617828 2.228885 0.850567 90.185791
[L_rear_hand01]
11 101.696655 -8.392275 -7.654577 -28.953398 -26.963976 137.645645 102.329041
12 101.696655 -8.392275 -7.654577 -30.967802 -24.555588 142.276382 102.329041
[L_rear_hand02]
11 102.726799 -1.568258 5.773216 81.888359 45.378399 170.342453 102.900848
12 102.726799 -1.568258 5.773216 82.497200 40.606583 171.238342 102.900848
[L_rear_hand03]
11 104.552910 9.721220 -10.420293 -166.314163 -20.719038 -135.138702 105.519653
12 104.552910 9.721220 -10.420293 -164.603775 -19.511108 -140.104065 105.519653
